<svg width="84" height="79" viewBox="0 0 84 79" fill="none" xmlns="http://www.w3.org/2000/svg">
<g clip-path="url(#clip0_394_6443)">
<path d="M23.6895 49.2484V30.9439H27.3322V49.2484H23.6895ZM30.7657 30.9439H34.6117V40.8578C34.6116 42.4311 34.6593 43.4508 34.7546 43.9169C34.9192 44.6661 35.3089 45.2696 35.924 45.7274C36.5476 46.1769 37.3965 46.4016 38.4706 46.4016C39.562 46.4016 40.3849 46.1894 40.9393 45.7648C41.4937 45.332 41.8271 44.8034 41.9398 44.1791C42.0524 43.5548 42.1087 42.5185 42.1087 41.0701V30.9439H45.9546V40.5582C45.9546 42.7557 45.8507 44.3081 45.6428 45.2155C45.4349 46.1228 45.0494 46.8886 44.4864 47.5129C43.932 48.1372 43.1871 48.6366 42.2516 49.0112C41.3161 49.3775 40.0947 49.5606 38.5875 49.5606C36.7685 49.5606 35.3869 49.3608 34.4427 48.9613C33.5072 48.5534 32.7666 48.029 32.2209 47.388C31.6752 46.7387 31.3157 46.0603 31.1425 45.3528C30.8913 44.304 30.7657 42.7557 30.7657 40.708V30.9439ZM48.2654 40.2086C48.2654 38.344 48.5403 36.7791 49.09 35.5138C49.5002 34.5815 50.0581 33.745 50.7636 33.0041C51.4774 32.2633 52.2568 31.7139 53.1018 31.356C54.2258 30.8732 55.5221 30.6318 56.9907 30.6318C59.6488 30.6318 61.7737 31.4684 63.3654 33.1415C64.4009 34.2244 65.1013 35.5812 65.4666 37.2117L61.6476 37.252C61.42 36.4851 61.0819 35.8474 60.6334 35.339C59.7309 34.3068 58.529 33.7908 57.0276 33.7907C55.5262 33.7908 54.3161 34.3152 53.3972 35.364C52.4783 36.4045 52.0189 37.9777 52.0189 40.0837M52.0189 40.0837C52.0189 42.1564 52.4906 43.7296 53.4341 44.8034C54.3776 45.8689 55.5754 46.4016 57.0276 46.4016C58.4797 46.4016 59.6692 45.8729 60.5964 44.8159C61.1126 44.2275 61.4866 43.4784 61.7179 42.568L65.5429 42.653C65.2066 44.4319 64.4891 45.9021 63.39 47.0634C61.8066 48.7282 59.6899 49.5606 57.0399 49.5606C54.3571 49.5606 52.224 48.7323 50.6406 47.0759C49.0571 45.4111 48.2654 43.122 48.2654 40.2086M67.7787 49.2484V30.9439H71.0448L79.3963 43.6193V30.9439H82.7934V49.2484H79.6102L71.0201 36.4087L71.3765 49.2484H67.7787Z" fill="#C6C6C6"/>
<path fill-rule="evenodd" clip-rule="evenodd" d="M62.2212 59.3278L74.0749 59.2946C67.3407 70.8503 54.8146 78.6221 40.4843 78.6221C19.0393 78.6221 1.63477 61.2175 1.63477 39.7725C1.63477 18.3275 19.0393 0.922852 40.4843 0.922852C55.0566 0.922852 67.7633 8.95934 74.411 20.8391L62.7426 20.8123C57.3776 14.5211 49.3942 10.5297 40.4843 10.5297C24.3423 10.5297 11.2416 23.6305 11.2416 39.7725C11.2416 55.9145 24.3423 69.0153 40.4843 69.0153C49.11 69.0153 56.8673 65.2745 62.2212 59.3278Z" fill="url(#paint0_radial_394_6443)"/>
</g>
<defs>
<radialGradient id="paint0_radial_394_6443" cx="0" cy="0" r="1" gradientUnits="userSpaceOnUse" gradientTransform="translate(17.0209 10.8236) scale(52.1384 65.101)">
<stop stop-color="#F0F4F7"/>
<stop offset="0.5" stop-color="#0EBFE4"/>
<stop offset="1" stop-color="#1E3A6B"/>
</radialGradient>
<clipPath id="clip0_394_6443">
<rect width="83" height="78" fill="white" transform="translate(0.71875 0.84375)"/>
</clipPath>
</defs>
</svg>
