<svg width="73" height="73" viewBox="0 0 73 73" fill="none" xmlns="http://www.w3.org/2000/svg">
<g clip-path="url(#clip0_394_6469)">
<path d="M61.6442 35.3123L71.1059 17.2607C71.9493 15.717 72.4351 13.9305 72.4351 12.0581C72.4351 6.05518 67.5899 1.20996 61.5871 1.20996C57.4135 1.20996 53.8404 3.53967 51.9967 6.98421L49.2525 12.1153V35.298C49.2381 35.3123 61.6442 35.3123 61.6442 35.3123Z" fill="#2270B1"/>
<path d="M49.2666 35.2694V12.1153L46.5224 6.98421C44.6787 3.52537 41.077 1.20996 36.9035 1.20996C32.73 1.20996 29.1282 3.53967 27.2845 6.98421L24.5403 12.1153V35.2694H49.2666Z" fill="#43AA49"/>
<path d="M12.1631 35.3123L2.70129 17.2607C1.85802 15.717 1.37207 13.9305 1.37207 12.0581C1.37207 6.05518 6.21729 1.20996 12.2202 1.20996C16.3937 1.20996 19.9668 3.53967 21.8106 6.98421L24.5548 12.1153V35.298C24.5691 35.3123 12.1631 35.3123 12.1631 35.3123Z" fill="#27AA9B"/>
<path d="M36.9033 35.2694L44.6213 49.7336C45.5504 51.3772 47.337 52.4778 49.338 52.4778C51.3818 52.4778 53.1827 51.3487 54.0831 49.6622L61.6439 35.298L49.2807 12.1152C49.2665 12.1152 36.9033 35.2694 36.9033 35.2694Z" fill="#176D3D"/>
<path d="M36.9038 35.2694L29.1857 49.7336C28.2567 51.3772 26.4701 52.4778 24.4691 52.4778C22.4396 52.4778 20.6244 51.3487 19.7239 49.6622L12.1631 35.298L24.5263 12.1152C24.5406 12.1152 36.9038 35.2694 36.9038 35.2694Z" fill="#22955A"/>
<path d="M26.8275 65.1416C27.1849 66.3708 27.4136 67.6571 27.5994 68.9578C27.628 67.6 27.7852 66.3708 28.0853 65.1416L30.1149 56.7089H33.4165L29.3431 72.2451H26.1415L23.3402 62.3403C23.1401 61.6971 22.9257 60.7823 22.8542 59.5388C22.797 60.568 22.6255 61.5113 22.3968 62.3403L19.6241 72.2451H16.4225L12.3491 56.6804H15.6793L17.7089 65.2988C17.9376 66.3708 18.0662 67.5284 18.1234 68.7862C18.352 67.3284 18.6665 66.1421 18.938 65.1416L21.2391 56.6517H24.4978C24.5122 56.6517 26.8275 65.1416 26.8275 65.1416ZM43.2641 59.0101C39.9339 59.0101 37.8329 61.1825 37.8329 64.4984C37.8329 67.7286 39.7339 69.8296 42.9354 69.8296C44.7077 69.8296 46.2656 69.2436 47.5806 68.0287L47.552 71.4589C46.137 72.3023 44.5791 72.6881 42.8783 72.6881C37.8329 72.6881 34.3884 69.2007 34.3884 64.527C34.3884 59.939 37.7472 56.3516 42.9497 56.3516C44.9222 56.3516 46.4372 56.8375 47.6949 57.4522L47.5948 60.7823C46.4657 59.7246 45.108 59.0101 43.2641 59.0101ZM52.24 68.186C52.726 69.3436 53.8265 70.0297 55.1128 70.0297C56.7279 70.0297 57.6283 69.1865 57.6283 68.0002C57.6283 66.6423 56.342 66.3565 54.1981 65.2274C51.8969 64.0268 50.5821 62.8977 50.5821 60.7395C50.5821 58.2811 52.6831 56.3516 56.0705 56.3516C57.9428 56.3516 59.272 56.9948 60.301 58.3812L58.343 60.2392C57.857 59.3388 57.0852 58.8814 56.0276 58.8814C54.6697 58.8814 53.8265 59.6532 53.8265 60.6537C53.8265 62.083 55.2129 62.426 56.9565 63.1978C59.5721 64.3841 60.8299 65.8705 60.8299 67.8143C60.8299 70.6157 58.8004 72.5881 55.3415 72.5881C52.926 72.5881 51.2109 71.7162 50.3677 70.2012C50.3677 70.2155 52.24 68.186 52.24 68.186Z" fill="#27231D"/>
</g>
<defs>
<clipPath id="clip0_394_6469">
<rect width="72" height="72" fill="white" transform="translate(0.71875 0.84668)"/>
</clipPath>
</defs>
</svg>
